<svg xmlns="http://www.w3.org/2000/svg" 
    viewBox="0 0 278.3 40.3" width="350" style=" fill:#000000;">
    <path d="M18.7 1.5C8.4 1.5 0 9.8 0 20.1s8.3 18.7 18.6 18.7c5.3 0 10.3-2.3 13.9-6.2 3.5-4 5.2-9.3 4.7-14.6-1.1-9.4-9-16.5-18.5-16.5zM5.2 12.9c.3-.5.6-1.1 1-1.6 0-.2.2-.3.4-.3s.4.1.5.2l6.3 6.3c.9.7 2 .9 3 .5.1 0 .2-.1.2-.2.4-1 .4-2.1-.1-3l-.2-.2-6.4-6.3c-.1-.2-.2-.3-.1-.5 0-.2.1-.3.2-.4.5-.4 1-.7 1.6-1 .2-.1.5-.1.7.1l.7.7 5.4 5.4c.5.6 1.2.9 2 .9.8-.1 1 .4 1.1 1.3.2 1.7.7 3.3 1.3 4.9l.2.5c.5 1.3.7 1.6 0 2.2-.7.6-1.4 1.3-2.1 2.1-.2.2-.4.4-.6.4-.1 0-.2 0-.3-.1-2.3-.7-4.7-1.4-7.1-2.1-.5-.1-.7-.4-.6-.8.1-.9-.3-1.8-1-2.3l-5.4-5.4-.5-.5c-.3-.3-.4-.6-.2-.8zm28.7 8.9c-.8 7.1-6.4 12.7-13.5 13.6-4.4.5-8.7-.9-12-3.8-3.1-3-5-7.2-5-11.6v-.9c0-.2.2-.4.4-.5H4c.2 0 .3.1.4.2l.4.4c1.3 1.3 2.7 2.7 4 4.1.8.8 1.9 1.4 3 1.7 2.9.8 6.2 1.7 10.2 2.8l3.8 1c.1 0 .3.1.4.1.5.1 1.1-.2 1.2-.8v-.5c-1.3-5-2.7-10.2-4.2-15.4-.2-.6-.5-1.2-.9-1.6-1.5-1.5-3-3-4.5-4.6l-.5-.5c-.2-.2-.2-.4-.1-.6.1-.2.3-.4.5-.4h.9c8.5.1 15.4 7 15.3 15.5.1.7.1 1.3 0 1.8zM63.5 18.7v8.4c-1.9 2.9-5.4 4.5-9 4.5-6.6 0-11.1-5.1-11.1-11.3 0-6.7 5.2-11.6 11.2-11.6 3.3 0 6.5 1.5 8.4 3.4l-3.1 3.1c-1.2-1.3-3.2-2.1-5.2-2.1-3.7 0-7 3.1-7 7.2 0 3.9 2.8 7.1 6.8 7.1 2 0 4.1-.8 5-1.8v-2.9h-4.8v-3.8h8.8zM80.4 25.1h-11c.3 2 1.6 3.2 3.7 3.2 1.4 0 2.7-.5 3.8-2.1l3.1 1.5c-1.2 2.4-3.9 3.9-6.9 3.9-5.2 0-8.2-3.3-8.2-7.7s3.2-7.8 8-7.8c4.5 0 7.4 3 7.4 7.7.1.5.1.9.1 1.3zm-11-2.6h6.9c-.3-1.9-1.5-3-3.4-3s-3.1 1.2-3.5 3zM90.3 19.7h-2.9v11.6h-4.3V19.7h-2.8v-3.2h2.8v-4.2h4.3v4.2h2.9v3.2zM91.4 11.4c0-1.3 1.1-2.4 2.4-2.4 1.3 0 2.5 1.1 2.5 2.4s-1.1 2.4-2.5 2.4c-1.3.1-2.4-1-2.4-2.4zm.2 5H96v14.9h-4.3V16.4zM98.8 9h4.3v22.3h-4.3V9zM106.1 9h4.3v22.3h-4.3V9zM127.4 16.4v14.9h-4.3v-1.5c-1.1 1.1-2.6 1.8-4.3 1.8-3.3 0-5.9-2.7-5.9-6v-9.1h4.3v8.6c0 1.5 1.2 2.8 2.8 2.8 1.7 0 3-1.2 3-2.8v-8.6h4.4zM128.7 29.8l2-3.1c1 .8 2.6 1.5 3.9 1.6 1.2.1 2.1-.3 2.1-1.2 0-2.4-7.4-1.4-7.4-6.2 0-2.7 2.4-4.8 6-4.8 1.5 0 3.8.4 5.6 1.6l-2.1 2.8c-.7-.6-2-1.1-3-1.3-1.1-.1-2.2.2-2.2 1 0 2.3 7.3 1.2 7.3 6.2 0 2.8-2.2 5.1-6.1 5.1-1.9.1-4.5-.5-6.1-1.7z"/>
    <path d="M150.8 19.7h-2.9v11.6h-4.3V19.7h-2.8v-3.2h2.8v-4.2h4.3v4.2h2.9v3.2zM162 16.4l-.2 3.7c-.4-.1-.9-.2-1.5-.2-2.4 0-4.1 1.5-4.1 4v7.4h-4.3V16.4h4.3v2c1-1.4 2.6-2.3 4.3-2.3.6.1 1.2.2 1.5.3zM177.7 16.4v14.9h-4.3V30c-1.2 1-2.7 1.7-4.5 1.7-4.2 0-7.4-3.4-7.4-7.7s3.2-7.7 7.4-7.7c1.8 0 3.3.6 4.5 1.7v-1.4h4.3zm-4 7.5c0-2.2-1.8-4-3.9-4-2.2 0-3.9 1.8-3.9 4s1.7 3.9 3.9 3.9c2.1 0 3.9-1.7 3.9-3.9zM189.1 19.7h-2.9v11.6h-4.3V19.7h-2.8v-3.2h2.8v-4.2h4.3v4.2h2.9v3.2zM190.1 11.4c0-1.3 1.1-2.4 2.4-2.4 1.3 0 2.5 1.1 2.5 2.4s-1.1 2.4-2.5 2.4c-1.3.1-2.4-1-2.4-2.4zm.3 5h4.3v14.9h-4.3V16.4zM196.4 23.9c0-4.3 3.7-7.7 8.3-7.7 4.6 0 8.3 3.4 8.3 7.7 0 4.3-3.6 7.7-8.3 7.7-4.6 0-8.3-3.4-8.3-7.7zm12.2 0c0-2.2-1.8-4-3.9-4-2.2 0-3.9 1.8-3.9 4s1.7 3.9 3.9 3.9 3.9-1.7 3.9-3.9zM229.3 21.9v9.4H225v-8.9c0-1.5-1.1-2.5-2.8-2.5-1.7 0-3.1 1.2-3.1 2.8v8.6h-4.3V16.4h4.3V18c1.1-1.1 2.6-1.8 4.3-1.8 3.5 0 5.9 2.2 5.9 5.7zM230.2 29.8l2-3.1c1 .8 2.6 1.5 3.9 1.6 1.2.1 2.1-.3 2.1-1.2 0-2.4-7.4-1.4-7.4-6.2 0-2.7 2.4-4.8 6-4.8 1.5 0 3.8.4 5.6 1.6l-2.1 2.8c-.7-.6-2-1.1-3-1.3-1.1-.1-2.2.2-2.2 1 0 2.3 7.3 1.2 7.3 6.2 0 2.8-2.2 5.1-6.1 5.1-2 .1-4.6-.5-6.1-1.7zM242.7 30.1c0-.8.6-1.4 1.4-1.4s1.4.7 1.4 1.4c0 .8-.6 1.4-1.4 1.4s-1.4-.6-1.4-1.4zM246.5 27c0-2.6 1.9-4.5 4.6-4.5.7 0 1.6.1 2.3.5v2.3c-.4-.4-1.2-.7-1.9-.7-1.4 0-2.4 1-2.4 2.4s1 2.4 2.4 2.4c.8 0 1.5-.3 1.9-.7V31c-.7.4-1.6.5-2.3.5-2.7 0-4.6-1.9-4.6-4.5zM253.9 27c0-2.5 2.1-4.5 4.8-4.5 2.7 0 4.8 2 4.8 4.5s-2.1 4.5-4.8 4.5c-2.6 0-4.8-2-4.8-4.5zm7.2 0c0-1.3-1-2.3-2.3-2.3-1.3 0-2.3 1-2.3 2.3s1 2.3 2.3 2.3c1.2 0 2.3-1 2.3-2.3zM278.3 25.8v5.5h-2.5v-5.2c0-.9-.6-1.4-1.4-1.4-.9 0-1.6.7-1.6 1.6v5h-2.5v-5.2c0-.9-.6-1.4-1.4-1.4-.9 0-1.6.7-1.6 1.6v5h-2.5v-8.7h2.5v.8c.6-.6 1.4-1 2.3-1 1.2 0 2.1.5 2.7 1.4.7-.8 1.7-1.4 2.9-1.4 1.8.1 3.1 1.4 3.1 3.4z"/>
</svg>